<?xml version="1.0" encoding="UTF-8"?>
<svg xmlns="http://www.w3.org/2000/svg" width="5cm" height="4cm" version="1.1">
  <desc>testing file
  </desc>
  <circle cx="32.000000" cy="32.000000" r="30.000000" fill="#BBBBBB"/>
  <g fill="#231f20">
    <rect x="0.500000cm" y="0.500000cm" width="2.000000cm" height="1.000000cm" fill="#111111"/>
    <g fill="#777777">
      <rect x="69.000000cm" y="69.000000cm" width="69.000000cm" height="69.000000cm"/>
      <circle cx="23.600000" cy="34.299999" r="3.600000" fill="#999999"/>
      <path d="m49.6 34.3c0 4-3.2 7.2-7.2 7.2-4 0-7.2-3.2-7.2-7.2 0-4 3.2-7.2 7.2-7.2 3.9 0 7.2 3.2 7.2 7.2" fill="#fff"/>
      <g fill="#777777">
        <rect x="99.000000cm" y="69.000000cm" width="69.000000cm" height="69.000000cm"/>
        <circle cx="99.000000" cy="34.299999" r="3.600000" fill="#999999"/>
        <path d="99 34.3c0 4-3.2 7.2-7.2 7.2-4 0-7.2-3.2-7.2-7.2 0-4 3.2-7.2 7.2-7.2 3.9 0 7.2 3.2 7.2 7.2" fill="#fff"/>
      </g>
    </g>
  </g>
  <g fill="#777777">
    <rect x="69.000000cm" y="69.000000cm" width="69.000000cm" height="69.000000cm"/>
    <circle cx="23.600000" cy="34.299999" r="3.600000" fill="#999999"/>
    <path d="m49.6 34.3c0 4-3.2 7.2-7.2 7.2-4 0-7.2-3.2-7.2-7.2 0-4 3.2-7.2 7.2-7.2 3.9 0 7.2 3.2 7.2 7.2" fill="#fff"/>
  </g>
</svg>
