<svg xmlns="http://www.w3.org/2000/svg" viewBox="0 0 64 64" enable-background="new 0 0 64 64">
    <circle cx="40.4" cy="34.3" r="3.6"/>
    <circle cx="40.4" cy="34.3" r="3"/>
    <circle cx="40.4" cy="34.3" r="3.6"/>

    <path d="m28.8 34.3c0 4-3.2 7.2-7.2 7.2-4 0-7.2-3.2-7.2-7.2 0-4 3.2-7.2 7.2-7.2 4 0 7.2 3.2 7.2 7.2" fill="#fff"/>
    <circle cx="23.6" cy="34.3" r="3.6" fill="#231f20"/>
    <path d="m49.6 34.3c0 4-3.2 7.2-7.2 7.2-4 0-7.2-3.2-7.2-7.2 0-4 3.2-7.2 7.2-7.2 3.9 0 7.2 3.2 7.2 7.2" fill="#fff"/>
    <g fill="#231f20">
        <circle cx="40.4" cy="34.3" r="3"/>
        <path d="m38 50.6c0 3.3-2.7 6-6 6-3.3 0-6-2.7-6-6 0-3.3 2.7-6 6-6 3.3 0 6 2.7 6 6"/>
        <circle cx="40.4" cy="34.3" r="3"/>
    </g>
</svg>
