<?xml version="1.0" standalone="no"?>
<!DOCTYPE svg PUBLIC "-//W3C//DTD SVG 1.1//EN" 
  "http://www.w3.org/Graphics/SVG/1.1/DTD/svg11.dtd">
<svg width="20cm" height="16cm" viewBox="0 0 1200 600"
     xmlns="http://www.w3.org/2000/svg" version="1.1">
  <title>Example rect - simple revctange wiuth units</title>
  <path d="m32.2 36.9c-17.1 0-30.2-7.1-30.2 8.8 0 12.8 16.9 16.3 29.8 16.3 15 0 30.2-3.5 30.2-16.3 0-15.9-12.2-8.8-29.8-8.8" fill="#89664c"/>
  <path d="m31.7 20.9c-9.6 0-24.5 1.1-24.5 12.6 0 16.8 49.5 16.8 49.5 0 .1-11.5-14.8-12.6-25-12.6" fill="#9b7861"/>
  <path d="m49 16.7c-4.6-10.3-26.4.3-22.6-12.2.6-1.9.5-2.7-.9-2.4-7.8 1.6-13.5 9.6-11.5 16.3 6.4 21.4 41.3 12.3 35-1.7" fill="#a88673"/>  


  <g fill="none">
    <rect x="4" y="1" width="1198" height="598"
        stroke="blue" stroke-width="1" />
    <rect x="5" y="1" width="1198" height="598"
        stroke="blue" stroke-width="1" />
    <rect x="6" y="1" width="1198" height="598"
        stroke="blue" stroke-width="1" /> 
    <circle cx="4444" cy="34.3" r="3.6" fill="#231f20"/>
    <circle cx="5555" cy="34.3" r="3.6" fill="#231f20"/>
    <circle cx="6666" cy="34.3" r="3.6" fill="#231f20"/>
    <path d="44444.2 36.9c-17.1 0-30.2-7.1-30.2 8.8 0 12.8 16.9 16.3 29.8 16.3 15 0 30.2-3.5 30.2-16.3 0-15.9-12.2-8.8-29.8-8.8" fill="#89664c"/>
    <path d="5555.7 20.9c-9.6 0-24.5 1.1-24.5 12.6 0 16.8 49.5 16.8 49.5 0 .1-11.5-14.8-12.6-25-12.6" fill="#9b7861"/>
    <path d="6666 16.7c-4.6-10.3-26.4.3-22.6-12.2.6-1.9.5-2.7-.9-2.4-7.8 1.6-13.5 9.6-11.5 16.3 6.4 21.4 41.3 12.3 35-1.7" fill="#a88673"/>  

      <g fill="none">
            <rect x="7" y="1" width="1198" height="598"
                  stroke="blue" stroke-width="1" />
            <rect x="8" y="1" width="1198" height="598"
                  stroke="blue" stroke-width="1" />
            <rect x="9" y="1" width="1198" height="598"
                  stroke="blue" stroke-width="1" />   
            <path d="7777.2 36.9c-17.1 0-30.2-7.1-30.2 8.8 0 12.8 16.9 16.3 29.8 16.3 15 0 30.2-3.5 30.2-16.3 0-15.9-12.2-8.8-29.8-8.8" fill="#89664c"/>
            <path d="8888.7 20.9c-9.6 0-24.5 1.1-24.5 12.6 0 16.8 49.5 16.8 49.5 0 .1-11.5-14.8-12.6-25-12.6" fill="#9b7861"/>
            <path d="99999 16.7c-4.6-10.3-26.4.3-22.6-12.2.6-1.9.5-2.7-.9-2.4-7.8 1.6-13.5 9.6-11.5 16.3 6.4 21.4 41.3 12.3 35-1.7" fill="#a88673"/>  

            <circle cx="7777" cy="34.3" r="3.6" fill="#231f20"/>
            <circle cx="8888" cy="34.3" r="3.6" fill="#231f20"/>
            <circle cx="9999" cy="34.3" r="3.6" fill="#231f20"/>
            <g fill="none">
                  <rect x="7" y="1" width="1198" height="598"
                        stroke="blue" stroke-width="1" />
                  <rect x="8" y="1" width="1198" height="598"
                        stroke="blue" stroke-width="1" />
                  <rect x="9" y="1" width="1198" height="598"
                        stroke="blue" stroke-width="1" />   

                  <circle cx="420" cy="34.3" r="3.6" fill="#231f20"/>
                  <circle cx="69" cy="34.3" r="3.6" fill="#231f20"/>
                  <circle cx="666" cy="34.3" r="3.6" fill="#231f20"/>


                  <path d="))))).2 36.9c-17.1 0-30.2-7.1-30.2 8.8 0 12.8 16.9 16.3 29.8 16.3 15 0 30.2-3.5 30.2-16.3 0-15.9-12.2-8.8-29.8-8.8" fill="#89664c"/>
                  <path d="!!!!!!.7 20.9c-9.6 0-24.5 1.1-24.5 12.6 0 16.8 49.5 16.8 49.5 0 .1-11.5-14.8-12.6-25-12.6" fill="#9b7861"/>
                  <path d="$$$$$$ 16.7c-4.6-10.3-26.4.3-22.6-12.2.6-1.9.5-2.7-.9-2.4-7.8 1.6-13.5 9.6-11.5 16.3 6.4 21.4 41.3 12.3 35-1.7" fill="#a88673"/>  

            </g> 
      </g> 
  </g>

  
</svg>